<?xml version="1.0" standalone="no"?>
<!DOCTYPE svg PUBLIC "-//W3C//DTD SVG 20010904//EN"
 "http://www.w3.org/TR/2001/REC-SVG-20010904/DTD/svg10.dtd">
<svg version="1.0" xmlns="http://www.w3.org/2000/svg"
 width="900.000000pt" height="507.000000pt" viewBox="0 0 900.000000 507.000000"
 preserveAspectRatio="xMidYMid meet">
<metadata>
Created by potrace 1.10, written by Peter Selinger 2001-2011
</metadata>
<g transform="translate(0.000000,507.000000) scale(0.100000,-0.100000)"
fill="#fafafa" stroke="none">
<path d="M2030 3605 c-4 -11 -12 -60 -19 -110 -7 -49 -19 -120 -27 -156 -7
-37 -14 -78 -14 -92 0 -14 -5 -38 -10 -52 -6 -15 -14 -59 -19 -99 -11 -85 -38
-240 -47 -269 -4 -12 -10 -46 -15 -77 -11 -71 -33 -200 -54 -315 -9 -49 -22
-128 -29 -175 -7 -47 -15 -90 -19 -96 -3 -6 -11 -44 -17 -85 -5 -41 -17 -112
-25 -159 -9 -47 -20 -114 -25 -150 -6 -36 -20 -98 -31 -138 -12 -40 -19 -76
-16 -79 9 -9 709 -5 717 4 5 4 11 44 13 88 3 44 13 114 22 155 16 76 36 197
56 346 12 83 7 138 -12 132 -25 -8 -68 -187 -109 -453 -15 -99 -32 -157 -55
-183 l-23 -26 -238 3 c-132 1 -244 7 -250 12 -17 14 -10 129 19 279 14 74 37
198 51 275 14 77 28 149 31 160 3 11 10 56 15 100 6 44 16 114 24 155 8 41 24
129 36 195 11 66 27 154 34 195 36 198 46 250 56 310 31 184 36 199 78 229 29
20 41 21 308 21 l277 0 37 -39 c30 -31 46 -64 75 -153 21 -62 46 -130 56 -150
11 -21 19 -45 19 -55 0 -10 7 -31 16 -48 9 -16 29 -68 44 -115 15 -47 52 -148
83 -225 30 -77 60 -158 67 -180 6 -22 20 -58 30 -80 10 -22 26 -60 35 -85 29
-81 81 -175 96 -175 10 0 14 12 12 48 -1 26 -6 53 -11 60 -5 7 -13 28 -17 47
-4 19 -11 40 -15 45 -3 6 -17 39 -30 75 -26 74 -47 127 -60 152 -6 10 -10 26
-10 37 0 10 -11 44 -25 75 -23 51 -48 119 -91 241 -8 22 -18 49 -23 60 -5 11
-26 67 -47 125 -20 58 -41 110 -44 115 -4 6 -11 24 -15 42 -3 18 -17 55 -31
83 -13 27 -24 56 -24 63 0 21 -31 107 -38 107 -4 0 -177 2 -386 3 -370 2 -379
2 -386 -18z"/>
<path d="M4358 3622 c-8 -2 -20 -13 -25 -25 -6 -12 -42 -65 -81 -117 -39 -52
-81 -110 -94 -128 -13 -18 -36 -51 -53 -72 -16 -21 -49 -65 -72 -97 -23 -32
-49 -67 -58 -78 -8 -11 -78 -105 -155 -210 -77 -104 -144 -195 -150 -202 -5
-7 -20 -27 -33 -45 -38 -56 -140 -192 -154 -207 -13 -12 -103 -149 -129 -196
-7 -12 -21 -19 -33 -18 -12 2 -21 -2 -21 -7 0 -6 12 -10 28 -10 34 0 110 49
137 89 33 48 147 200 190 253 22 28 60 78 85 113 25 34 65 89 89 121 24 33 70
95 102 139 32 44 72 98 89 120 17 22 60 81 96 130 74 104 97 134 142 185 17
21 32 43 32 49 0 6 29 41 64 77 l63 65 1314 -4 c1417 -3 1366 -1 1509 -54 92
-34 177 -107 210 -178 27 -60 38 -231 20 -335 -34 -205 -84 -318 -195 -438
-70 -76 -110 -103 -202 -138 -144 -54 -236 -63 -733 -70 -212 -3 -410 -9 -439
-15 -57 -9 -101 -40 -126 -89 -7 -14 -20 -65 -29 -115 -9 -49 -21 -107 -27
-128 -6 -22 -8 -41 -6 -44 3 -2 -1 -25 -9 -50 -8 -25 -16 -73 -19 -107 -7 -69
-37 -141 -67 -157 -24 -13 -337 -23 -416 -14 -46 6 -56 11 -73 38 -14 22 -18
43 -15 67 14 107 29 197 37 215 4 11 17 81 29 155 28 184 67 408 74 418 2 4 7
33 10 63 6 56 27 133 45 168 6 11 26 23 44 26 17 3 336 6 707 8 l675 3 51 26
c53 28 72 49 98 111 14 35 14 39 -13 89 -19 38 -39 60 -70 77 l-43 23 -751 5
c-414 2 -780 1 -815 -2 -58 -6 -67 -11 -107 -50 -24 -24 -45 -52 -48 -62 -15
-52 -20 -81 -23 -108 -1 -16 -7 -50 -12 -75 -25 -111 -43 -213 -58 -315 -8
-60 -19 -126 -25 -145 -5 -19 -13 -70 -18 -112 -5 -42 -16 -87 -25 -99 -11
-16 -13 -35 -9 -64 3 -24 0 -51 -6 -64 -13 -23 -30 -109 -36 -178 -2 -24 -8
-57 -14 -75 -5 -18 -15 -52 -21 -75 -6 -24 -19 -47 -31 -53 -23 -13 -355 -17
-445 -6 l-62 8 -6 45 c-3 25 -3 50 1 56 4 7 8 28 9 47 1 19 7 60 13 90 45 221
63 412 42 433 -15 15 -48 -99 -81 -283 -6 -36 -15 -78 -20 -95 -5 -16 -12 -57
-16 -90 -3 -33 -12 -82 -20 -109 -8 -27 -14 -61 -14 -74 0 -13 -7 -39 -16 -58
-9 -19 -14 -37 -11 -41 3 -3 165 -5 359 -5 l353 0 7 24 c4 12 19 102 33 198
15 96 31 189 36 207 6 17 14 62 19 100 4 37 16 106 25 153 17 88 33 180 59
336 8 49 22 126 31 170 28 128 34 166 34 225 1 36 6 61 15 68 21 17 1667 16
1699 -1 31 -16 37 -27 37 -74 0 -35 -5 -47 -35 -73 -20 -17 -46 -33 -58 -36
-13 -4 -357 -5 -766 -3 -735 3 -742 3 -746 -17 -3 -11 -12 -65 -21 -120 -8
-55 -21 -136 -29 -180 -8 -44 -21 -118 -29 -165 -9 -47 -22 -123 -31 -170 -8
-47 -22 -123 -29 -170 -40 -238 -73 -406 -87 -431 -5 -11 -9 -25 -7 -31 3 -7
117 -10 358 -10 l355 0 13 79 c7 43 22 128 32 188 11 61 26 155 35 210 9 55
21 114 26 131 5 17 9 44 9 60 0 16 4 34 8 39 4 6 180 10 492 10 427 0 495 2
570 18 111 24 188 45 223 63 16 8 33 14 38 14 9 0 85 51 137 91 65 51 169 218
197 317 47 167 55 218 56 348 1 133 -6 173 -39 239 -38 77 -62 103 -132 149
-58 39 -102 56 -250 97 -34 9 -290 13 -1080 16 -569 2 -1179 4 -1356 6 -176 1
-328 1 -336 -1z"/>
<path d="M4180 2326 c-19 -13 -71 -72 -115 -131 -44 -58 -109 -143 -145 -188
-36 -45 -83 -107 -103 -137 -114 -168 -133 -192 -189 -236 -26 -20 -36 -21
-370 -20 -396 1 -380 -2 -423 94 -15 31 -31 66 -37 77 -6 11 -15 33 -19 50
-11 44 -57 166 -73 195 -8 14 -15 28 -15 33 -4 46 -69 185 -102 218 -10 10
-19 24 -19 29 0 6 -4 10 -10 10 -13 0 -13 -32 -1 -62 6 -13 19 -57 31 -98 12
-41 28 -88 35 -105 7 -16 21 -55 31 -85 9 -30 21 -59 25 -64 5 -6 9 -17 9 -25
0 -9 7 -29 15 -45 8 -15 15 -34 15 -41 0 -12 32 -93 49 -125 5 -9 12 -34 15
-56 4 -21 11 -45 15 -52 6 -11 96 -13 442 -13 479 0 434 -6 479 61 8 12 83
113 165 225 244 331 289 394 317 448 40 76 37 83 -22 43z"/>
</g>
</svg>
